# xmcd
#
# Track frame offsets:
#	150
#	8582
#	17296
#	26601
#	38930
#	53673
#	69299
#	83410
#	93207
#	109313
#	119836
#	136730
#	146560
#	155684
#	163102
#	173323
#	231406
#
# Disc length: 3259 seconds
#
# Revision: 2
# Processed by: cddbd v1.5.2PL0 Copyright (c) Steve Scherf et al.
# Submitted via: audiograbber 1.83.01
#
DISCID=cb0cb911
DTITLE=The Notwist - The Messier Objects
DYEAR=2014
DGENRE=Dance/Electronic
TTITLE0=Object 1
TTITLE1=Object 2
TTITLE2=Object 3
TTITLE3=Object 4
TTITLE4=Object 5
TTITLE5=Object 6
TTITLE6=Object 7
TTITLE7=Object 8
TTITLE8=Object 9
TTITLE9=Object 10
TTITLE10=Object 11
TTITLE11=Object 12
TTITLE12=Object 13
TTITLE13=Object 14
TTITLE14=Object 15
TTITLE15=Das Spiel ist aus
TTITLE16=Object 16
EXTD=
EXTT0=
EXTT1=
EXTT2=
EXTT3=
EXTT4=
EXTT5=
EXTT6=
EXTT7=
EXTT8=
EXTT9=
EXTT10=
EXTT11=
EXTT12=
EXTT13=
EXTT14=
EXTT15=
EXTT16=
PLAYORDER=
